<?xml version="1.0" encoding="UTF-8"?>
<svg xmlns="http://www.w3.org/2000/svg" version="1.1" viewBox="0 0 176 176">
  <defs>
    <style>
      .cls-1 {
        fill: #fff;
      }
    </style>
  </defs>
  <!-- Generator: Adobe Illustrator 28.6.0, SVG Export Plug-In . SVG Version: 1.2.0 Build 709)  -->
  <g>
    <g id="Ebene_1">
      <path class="cls-1" d="M150.8,79.2c-.3-13.3-11.2-24-24.6-24s-5.3.4-7.7,1.2c-2.6-12.3-13.5-21.5-26.5-21.5s-20.8,6.8-24.9,16.4c-2-.5-4-.8-6.1-.8-13.4,0-24.3,10.8-24.6,24.1-15.3.2-27.6,12.7-27.6,28s12.6,28,28,28,7.3-.7,10.6-2.1c4.1,7.9,12.3,13.3,21.9,13.3s17.7-5.4,21.8-13.3c4.1,7.9,12.3,13.3,21.8,13.3s19.5-6.6,23-16c2.4.8,5,1.3,7.8,1.3,13.6,0,24.6-11,24.6-24.6s-7.4-20.5-17.5-23.5Z"/>
    </g>
  </g>
</svg>