<?xml version="1.0" encoding="UTF-8"?>
<svg xmlns="http://www.w3.org/2000/svg" version="1.1" viewBox="0 0 318.6 90.3">
  <defs>
    <style>
      .cls-1 {
        fill: #fff;
      }
    </style>
  </defs>
  <!-- Generator: Adobe Illustrator 28.6.0, SVG Export Plug-In . SVG Version: 1.2.0 Build 709)  -->
  <g>
    <g id="Ebene_1">
      <path class="cls-1" d="M16.4,90.3h175.8c.3-.4.6-.8,1-1.3.9.5,1.8.9,2.7,1.3h120.1c1.7-5.1,2.7-10.5,2.7-16.2,0-27.9-22.6-50.5-50.5-50.5s-12.1,1.1-17.5,3.1c-7.8-12.2-21.4-20.3-37-20.3s-27.5,7.1-35.4,18c-6.4-3.6-13.8-5.6-21.7-5.6s-4.6.2-6.8.5C142.1,7.7,129,0,114.1,0s-33.1,11.1-39.3,26.7c-7.9-8.4-19.1-13.6-31.5-13.6C19.4,13.1,0,32.5,0,56.4s6.4,25.9,16.4,33.9Z"/>
    </g>
  </g>
</svg>