<?xml version="1.0" encoding="UTF-8"?>
<svg xmlns="http://www.w3.org/2000/svg" version="1.1" viewBox="0 0 318.6 90.3">
  <defs>
    <style>
      .cls-1 {
        fill: #fff;
      }
    </style>
  </defs>
  <!-- Generator: Adobe Illustrator 28.6.0, SVG Export Plug-In . SVG Version: 1.2.0 Build 709)  -->
  <g>
    <g id="Ebene_1">
      <path class="cls-1" d="M306.8,89.5c.5-1.8.8-3.6.8-5.6,0-9.2-6.1-17-14.4-19.7,1-2.6,1.5-5.4,1.5-8.4,0-12.9-10.5-23.4-23.4-23.4s-3.6.2-5.4.6C263.3,14.7,247.5.5,228.4.5s-28.8,9.3-34.7,22.6c-3.7-2.4-8-3.8-12.7-3.8-11.8,0-21.6,8.8-23.2,20.2-3.5-2.7-7.8-4.3-12.5-4.3-11.4,0-20.6,9.2-20.6,20.6s.1,2.6.4,3.9c-3.1,1.1-5.9,2.9-8.1,5.2-3.7-5.5-10-9.1-17.1-9.1s-4.8.4-7,1.2c-.8-10.7-9.7-19.1-20.5-19.1s-12,2.9-15.8,7.4c-3-1.7-6.5-2.7-10.2-2.7-10.6,0-19.3,8-20.5,18.3-8.8,2.3-15.4,10.4-15.4,19.9s.7,6,1.9,8.6h294.4Z"/>
    </g>
  </g>
</svg>