<?xml version="1.0" encoding="UTF-8"?>
<svg xmlns="http://www.w3.org/2000/svg" version="1.1" viewBox="0 0 176 176">
  <defs>
    <style>
      .cls-1 {
        fill: #fff;
      }
    </style>
  </defs>
  <!-- Generator: Adobe Illustrator 28.6.0, SVG Export Plug-In . SVG Version: 1.2.0 Build 709)  -->
  <g>
    <g id="Ebene_1">
      <path class="cls-1" d="M145.8,59.4c-4.1,0-7.9.9-11.4,2.5-4.2-10.2-14.2-17.4-25.9-17.4s-12.8,2.4-17.7,6.3c-6.1-9.6-16.8-16-29-16s-29.9,11.3-33.5,26.4c-.9-.1-1.8-.2-2.7-.2-13,0-23.6,10.7-23.6,23.9s6.6,19.2,15.7,22.5c2.7,10.2,11.9,17.7,22.8,17.7s2.7-.1,4-.3c5.4,9.8,15.7,16.4,27.5,16.4s22.8-7,28-17.3c4.3,4.4,10.2,7,16.7,7,10.1,0,18.8-6.5,22.1-15.6,2.2.6,4.6.9,7,.9,15.5,0,28.1-12.7,28.1-28.4s-12.6-28.4-28.1-28.4Z"/>
    </g>
  </g>
</svg>