<?xml version="1.0" encoding="UTF-8"?>
<svg xmlns="http://www.w3.org/2000/svg" version="1.1" viewBox="0 0 206.2 206.2">
  <defs>
    <style>
      .cls-1 {
        fill: #939393;
      }

      .cls-2 {
        fill: #a8a8a8;
      }

      .cls-3 {
        fill: #bcbcbc;
      }
    </style>
  </defs>
  <!-- Generator: Adobe Illustrator 28.6.0, SVG Export Plug-In . SVG Version: 1.2.0 Build 709)  -->
  <g>
    <g id="Ebene_1">
      <g>
        <path class="cls-3" d="M202.7,93.6c-5,7.4-13.5,12.2-23.1,12.2-15.4,0-27.9-12.5-27.9-27.9s12.5-27.9,27.9-27.9,6.4.6,9.3,1.6c-6-9.9-13.6-18.7-22.5-26-3.1,6.6-9.9,11.2-17.7,11.2s-19.6-8.8-19.6-19.6,1-7,2.7-10c-9.1-2.7-18.7-4.2-28.7-4.2C47.9,3.1,3.1,47.9,3.1,103.1s7.1,42.3,19.1,58.8c-.4-1.8-.6-3.7-.6-5.6,0-13.9,11.3-25.2,25.2-25.2s25.2,11.3,25.2,25.2-11.3,25.2-25.2,25.2-4.8-.3-7-1c12.4,10.1,27.2,17.3,43.4,20.6,0-.2,0-.3,0-.5,0-7.2,5.9-13.1,13.1-13.1s13.1,5.9,13.1,13.1,0,1.6-.2,2.3c33.2-2,62.1-20.2,78.8-46.8-6.2-1-11-6.4-11-12.9s5.9-13.1,13.1-13.1,6.2,1.2,8.4,3.1c3-9.5,4.6-19.6,4.6-30.2s-.2-6.4-.5-9.5Z"/>
        <path class="cls-2" d="M71.9,156.3c0-13.9-11.3-25.2-25.2-25.2s-25.2,11.3-25.2,25.2.2,3.8.6,5.6c5,6.9,10.9,13.2,17.5,18.6,2.2.6,4.6,1,7,1,13.9,0,25.2-11.3,25.2-25.2Z"/>
        <path class="cls-2" d="M96.3,187.5c-7.2,0-13.1,5.9-13.1,13.1s0,.3,0,.5c6.4,1.3,13.1,2,19.9,2s4,0,6-.2c.1-.8.2-1.5.2-2.3,0-7.2-5.9-13.1-13.1-13.1Z"/>
        <path class="cls-2" d="M176.9,143.3c0,6.5,4.7,11.9,11,12.9,4.4-7.1,8-14.8,10.6-22.9-2.3-1.9-5.2-3.1-8.4-3.1-7.2,0-13.1,5.9-13.1,13.1Z"/>
        <path class="cls-1" d="M151.6,77.9c0,15.4,12.5,27.9,27.9,27.9s18.1-4.9,23.1-12.2c-1.4-15.3-6.3-29.5-13.8-42-2.9-1-6-1.6-9.3-1.6-15.4,0-27.9,12.5-27.9,27.9Z"/>
        <path class="cls-2" d="M148.6,36.8c7.8,0,14.6-4.6,17.7-11.2-10.1-8.2-21.8-14.5-34.5-18.3-1.7,2.9-2.7,6.3-2.7,10,0,10.8,8.8,19.6,19.6,19.6Z"/>
      </g>
      <circle class="cls-1" cx="41.8" cy="136.7" r="12"/>
      <circle class="cls-2" cx="91.8" cy="119.2" r="12"/>
      <circle class="cls-2" cx="127.4" cy="152.8" r="21.2"/>
      <circle class="cls-2" cx="41.8" cy="74.5" r="21.2"/>
      <circle class="cls-2" cx="71.9" cy="83.8" r="24.3"/>
      <path class="cls-2" d="M71.1,48.1c15.4,0,27.9-12.5,27.9-27.9s-2-12-5.5-16.6c-18.7,1.8-35.9,8.7-50.2,19.4,1.4,14.1,13.3,25.1,27.8,25.1Z"/>
      <circle class="cls-2" cx="145.5" cy="95.7" r="16.5"/>
      <circle class="cls-2" cx="112.8" cy="44.5" r="6.9"/>
      <circle class="cls-1" cx="120.5" cy="49.8" r="6.9"/>
      <circle class="cls-2" cx="117.9" cy="59.5" r="9.5"/>
    </g>
  </g>
</svg>